<svg xmlns="http://www.w3.org/2000/svg" width="1024" height="500" viewBox="0 0 1024 500">
<rect width="1024" height="500" fill="#22444b"/>
<path d="M0 360 1024 0v108L0 468z" fill="#315a5a"/>
<path d="M0 433 1024 73v30L0 463z" fill="#b94740"/>
<g fill="#82e5d5" opacity=".3"><path d="M40 98h220v8H40zM20 126h150v8H20zM700 404h220v8H700zM790 432h210v8H790z"/></g>
<g transform="translate(628 76) scale(.68)">
<circle cx="256" cy="270" r="151" fill="#10172b" stroke="#fff0c6" stroke-width="18"/>
<circle cx="256" cy="270" r="115" fill="#22444b" stroke="#82e5d5" stroke-width="12"/>
<path d="m286 86-132 205h94l-20 139 137-216h-97z" fill="#f7cb5e" stroke="#172539" stroke-width="12" stroke-linejoin="round"/>
</g>
<g font-family="DejaVu Sans,sans-serif" font-weight="900" fill="#fff0c6">
<text x="94" y="211" font-size="76" letter-spacing="3">MOTO</text>
<text x="90" y="304" font-size="98" letter-spacing="1">THRASH</text>
<text x="96" y="350" font-size="25" letter-spacing="7" fill="#f7cb5e">RETRO RACING</text>
</g></svg>
