<svg xmlns="http://www.w3.org/2000/svg" width="256" height="256" viewBox="0 0 256 256">
  <rect width="256" height="256" fill="none"/>
  <path d="M52 143c0-35 31-60 78-60h34c28 0 50 20 50 47 0 31-24 55-58 55h-51c-32 0-53-17-53-42z" fill="#5a3a23"/>
  <path d="M73 176h18v42h-18zM133 178h18v40h-18zM173 169h17v47h-17z" fill="#3d2719"/>
  <path d="M43 128c0-27 20-48 48-48h34c24 0 43 19 43 43v24c0 26-21 47-47 47h-31c-27 0-47-22-47-66z" fill="#6f472a"/>
  <path d="M71 123c0-18 15-32 34-32h28c17 0 30 14 30 31v25c0 20-16 35-35 35h-29c-16 0-28-13-28-59z" fill="#8a5a34"/>
  <path d="M151 119c19-7 38-5 50 6 12 11 11 28-2 40-12 12-33 15-49 7 10-13 13-37 1-53z" fill="#2e1d13"/>
  <path d="M44 146c-16 4-28-3-30-15-2-11 7-21 24-23-4 11-2 27 6 38zM164 103c11-10 28-12 40-3 10 8 12 22 4 34-10-15-24-24-44-31z" fill="#9b7049"/>
  <path d="M68 80c-20-18-41-21-54-8-10 11-7 29 8 42-9 2-18 0-25-6 11 24 39 26 63 4l8-32zM139 82c15-23 38-32 55-21 14 9 15 29 4 45 9 0 18-4 24-12-6 27-34 36-66 18l-17-30z" fill="#d8c79b"/>
  <path d="M51 71l18 13-20 10-17-15zM161 76l-17 14 22 10 20-17zM24 106l25-13 7 19-25 14zM190 101l-27-9-4 21 30 10z" fill="#e9dcb8"/>
  <circle cx="88" cy="124" r="6" fill="#1b120d"/>
  <circle cx="132" cy="124" r="6" fill="#1b120d"/>
  <path d="M107 145c8-6 23-6 31 0-3 11-9 17-16 17-7 0-13-6-15-17z" fill="#2b1a11"/>
  <path d="M83 150c9 13 23 20 39 20s30-7 38-20c-7 27-24 40-39 40-16 0-31-13-38-40z" fill="#b58a62"/>
  <path d="M113 166h9v12h-9zM127 166h9v12h-9z" fill="#f3e3c5"/>
</svg>
